<svg width="28" height="33" viewBox="0 0 28 33" fill="none" xmlns="http://www.w3.org/2000/svg">
<path d="M27.74 14.19C25.875 12.2674 23.486 10.9355 20.87 10.36C18.9494 9.87731 16.98 9.61561 15 9.58001V4.28001C14.9687 3.38166 14.5829 2.53227 13.927 1.91761C13.2711 1.30294 12.3985 0.973024 11.5 1.00001C10.6015 0.973024 9.7289 1.30294 9.073 1.91761C8.41711 2.53227 8.03132 3.38166 8 4.28001V14.28L6.4 12.7C5.69519 12.0086 4.74729 11.6213 3.76 11.6213C2.7727 11.6213 1.82481 12.0086 1.12 12.7C0.76687 13.0412 0.485793 13.4497 0.293411 13.9015C0.10103 14.3532 0.00125533 14.839 -3.03762e-06 15.33C-0.0183386 16.282 0.341229 17.2025 0.999997 17.89L5.66 23.41C5.88481 24.8204 6.36971 26.1767 7.09 27.41C7.61625 28.3584 8.29153 29.216 9.09 29.95V31.87C9.08685 32.1438 9.18878 32.4084 9.3748 32.6093C9.56082 32.8102 9.81678 32.9321 10.09 32.95H24C24.2732 32.9321 24.5292 32.8102 24.7152 32.6093C24.9012 32.4084 25.0031 32.1438 25 31.87V29.17C26.965 26.8303 28.029 23.8653 28 20.81V14.81C27.9875 14.5795 27.8956 14.3605 27.74 14.19ZM26 20.86C26.0639 23.5187 25.1372 26.1063 23.4 28.12C23.1793 28.2998 23.0361 28.5576 23 28.84V31H11.14V29.52C11.1402 29.3562 11.1002 29.1948 11.0235 29.0501C10.9468 28.9054 10.8357 28.7817 10.7 28.69C9.95058 28.0756 9.33175 27.3174 8.88 26.46C8.243 25.3813 7.83454 24.1832 7.68 22.94C7.66927 22.7236 7.58855 22.5166 7.45 22.35L2.53 16.53C2.36975 16.3719 2.24251 16.1835 2.15567 15.9758C2.06883 15.768 2.02411 15.5451 2.02411 15.32C2.02411 15.0949 2.06883 14.872 2.15567 14.6643C2.24251 14.4565 2.36975 14.2681 2.53 14.11C2.85926 13.7857 3.30286 13.604 3.765 13.604C4.22714 13.604 4.67074 13.7857 5 14.11L8 17.11V20.25L10 19.25V4.28001C10.0356 3.91393 10.2118 3.57593 10.4916 3.33719C10.7714 3.09844 11.1329 2.97756 11.5 3.00001C11.8671 2.97756 12.2286 3.09844 12.5084 3.33719C12.7882 3.57593 12.9644 3.91393 13 4.28001V16.08L15 16.51V11.59C15.8392 11.6066 16.677 11.6666 17.51 11.77V17L19.11 17.35V12C19.52 12.08 19.94 12.17 20.37 12.28C20.8884 12.4157 21.3992 12.5792 21.9 12.77V17.92L23.5 18.27V13.5C24.409 13.9588 25.2503 14.541 26 15.23V20.86Z" fill="white"/>
</svg>
